<svg width="1237" height="729" viewBox="0 0 1237 729" fill="none" xmlns="http://www.w3.org/2000/svg">
<g opacity="0.3">
<path d="M180.483 125.122C156.123 125.122 132.473 119.172 110.113 112.932L101.193 110.442L110.163 108.122C143.733 99.4321 169.673 93.5621 197.843 97.1321C204.193 97.9421 210.023 99.6221 214.693 102.002C220.863 105.142 221.683 108.982 221.623 110.992C221.563 112.962 220.553 116.672 214.403 119.362C208.283 122.032 201.103 123.822 193.643 124.522C189.233 124.932 184.843 125.122 180.483 125.122ZM120.523 110.612C143.773 116.812 168.283 121.892 193.173 119.552C200.113 118.902 206.763 117.252 212.403 114.792C215.013 113.652 216.593 112.172 216.633 110.842C216.673 109.472 215.063 107.782 212.423 106.442C208.263 104.322 203.003 102.812 197.213 102.082C172.483 98.9421 149.243 103.392 120.523 110.612Z" fill="#396A6B"/>
<path d="M40.7929 125.152C35.1629 125.152 29.5129 124.822 23.7829 124.092C17.4329 123.282 11.6029 121.602 6.93291 119.222C0.76291 116.082 -0.0570892 112.242 0.00291076 110.232C0.0629108 108.262 1.07291 104.552 7.22291 101.862C13.3429 99.1921 20.5229 97.4021 27.9829 96.7021C56.9729 93.9821 85.1429 100.932 111.503 108.282L120.423 110.772L111.453 113.092C84.7229 120.012 62.8329 125.152 40.7929 125.152ZM41.1129 101.082C36.9029 101.082 32.6829 101.262 28.4529 101.662C21.5129 102.312 14.8629 103.962 9.22291 106.422C6.61291 107.562 5.03291 109.042 4.99291 110.372C4.95291 111.742 6.56291 113.432 9.20291 114.772C13.3629 116.892 18.6229 118.402 24.4129 119.132C49.1429 122.262 72.3929 117.812 101.103 110.592C81.8029 105.452 61.6429 101.082 41.1129 101.082Z" fill="#396A6B"/>
<path d="M110.363 120.432L108.043 111.462C99.3529 77.8921 93.4829 51.9521 97.0529 23.7821C97.8629 17.4321 99.5429 11.6021 101.923 6.93208C105.063 0.76208 108.913 -0.0479193 110.913 0.00208067C112.883 0.0620807 116.593 1.07208 119.283 7.22208C121.953 13.3421 123.743 20.5221 124.443 27.9821C127.173 56.9821 120.213 85.1421 112.863 111.502L110.363 120.432ZM110.713 4.98208C109.353 4.98208 107.693 6.59208 106.363 9.19208C104.243 13.3521 102.733 18.6121 102.003 24.4021C98.8729 49.1321 103.323 72.3821 110.543 101.092C116.743 77.8421 121.823 53.3321 119.483 28.4421C118.833 21.5021 117.183 14.8521 114.723 9.21208C113.583 6.60208 112.103 5.02208 110.773 4.98208C110.743 4.98208 110.733 4.98208 110.713 4.98208Z" fill="#396A6B"/>
<path d="M110.343 221.622C110.273 221.622 110.213 221.622 110.153 221.622C108.183 221.562 104.473 220.552 101.783 214.402C99.1129 208.282 97.3229 201.102 96.6229 193.642C93.8929 164.642 100.853 136.482 108.203 110.122L110.693 101.202L113.013 110.172C121.703 143.742 127.573 169.682 124.003 197.852C123.193 204.202 121.513 210.032 119.133 214.702C116.103 220.662 112.403 221.622 110.343 221.622ZM110.523 120.522C104.323 143.772 99.2429 168.282 101.583 193.172C102.233 200.112 103.883 206.762 106.343 212.402C107.483 215.012 108.963 216.592 110.293 216.632C111.643 216.642 113.353 215.062 114.693 212.422C116.813 208.262 118.323 203.002 119.053 197.212C122.203 172.482 117.743 149.242 110.523 120.522Z" fill="#396A6B"/>
<path d="M434.109 125.122C409.749 125.122 386.099 119.172 363.739 112.932L354.819 110.442L363.789 108.122C397.359 99.4321 423.299 93.5621 451.469 97.1321C457.819 97.9421 463.649 99.6221 468.319 102.002C474.489 105.142 475.309 108.982 475.249 110.992C475.189 112.962 474.179 116.672 468.029 119.362C461.909 122.032 454.729 123.822 447.269 124.522C442.859 124.932 438.469 125.122 434.109 125.122ZM374.149 110.612C397.399 116.812 421.909 121.892 446.799 119.552C453.739 118.902 460.389 117.252 466.029 114.792C468.639 113.652 470.219 112.172 470.259 110.842C470.299 109.472 468.689 107.782 466.049 106.442C461.889 104.322 456.629 102.812 450.839 102.082C426.109 98.9421 402.869 103.392 374.149 110.612Z" fill="#396A6B"/>
<path d="M294.419 125.152C288.789 125.152 283.139 124.822 277.409 124.092C271.059 123.282 265.229 121.602 260.559 119.222C254.389 116.082 253.569 112.242 253.629 110.232C253.689 108.262 254.699 104.552 260.849 101.862C266.969 99.1921 274.149 97.4021 281.609 96.7021C310.599 93.9821 338.769 100.932 365.129 108.282L374.049 110.772L365.079 113.092C338.349 120.012 316.459 125.152 294.419 125.152ZM294.739 101.082C290.529 101.082 286.309 101.262 282.079 101.662C275.139 102.312 268.489 103.962 262.849 106.422C260.239 107.562 258.659 109.042 258.619 110.372C258.579 111.742 260.189 113.432 262.829 114.772C266.989 116.892 272.249 118.402 278.039 119.132C302.769 122.262 326.019 117.812 354.729 110.592C335.429 105.452 315.269 101.082 294.739 101.082Z" fill="#396A6B"/>
<path d="M363.989 120.432L361.669 111.462C352.979 77.8921 347.109 51.9521 350.679 23.7821C351.489 17.4321 353.169 11.6021 355.549 6.93208C358.689 0.76208 362.539 -0.0479193 364.539 0.00208067C366.509 0.0620807 370.219 1.07208 372.909 7.22208C375.579 13.3421 377.369 20.5221 378.069 27.9821C380.799 56.9821 373.839 85.1421 366.489 111.502L363.989 120.432ZM364.339 4.98208C362.979 4.98208 361.319 6.59208 359.989 9.19208C357.869 13.3521 356.359 18.6121 355.629 24.4021C352.499 49.1321 356.949 72.3821 364.169 101.092C370.369 77.8421 375.449 53.3321 373.109 28.4421C372.459 21.5021 370.809 14.8521 368.349 9.21208C367.209 6.60208 365.729 5.02208 364.399 4.98208C364.369 4.98208 364.359 4.98208 364.339 4.98208Z" fill="#396A6B"/>
<path d="M363.969 221.622C363.899 221.622 363.839 221.622 363.779 221.622C361.809 221.562 358.099 220.552 355.409 214.402C352.739 208.282 350.949 201.102 350.249 193.642C347.519 164.642 354.479 136.482 361.829 110.122L364.319 101.202L366.639 110.172C375.329 143.742 381.199 169.682 377.629 197.852C376.819 204.202 375.139 210.032 372.759 214.702C369.729 220.662 366.029 221.622 363.969 221.622ZM364.149 120.522C357.949 143.772 352.869 168.282 355.209 193.172C355.859 200.112 357.509 206.762 359.969 212.402C361.109 215.012 362.589 216.592 363.919 216.632C365.269 216.642 366.979 215.062 368.319 212.422C370.439 208.262 371.949 203.002 372.679 197.212C375.829 172.482 371.369 149.242 364.149 120.522Z" fill="#396A6B"/>
<path d="M687.735 125.122C663.375 125.122 639.725 119.172 617.365 112.932L608.445 110.442L617.415 108.122C650.985 99.4321 676.925 93.5621 705.095 97.1321C711.445 97.9421 717.275 99.6221 721.945 102.002C728.115 105.142 728.935 108.982 728.875 110.992C728.815 112.962 727.805 116.672 721.655 119.362C715.535 122.032 708.355 123.822 700.895 124.522C696.485 124.932 692.095 125.122 687.735 125.122ZM627.775 110.612C651.025 116.812 675.535 121.892 700.425 119.552C707.365 118.902 714.015 117.252 719.655 114.792C722.265 113.652 723.845 112.172 723.885 110.842C723.925 109.472 722.315 107.782 719.675 106.442C715.515 104.322 710.255 102.812 704.465 102.082C679.735 98.9421 656.495 103.392 627.775 110.612Z" fill="#396A6B"/>
<path d="M548.045 125.152C542.415 125.152 536.765 124.822 531.035 124.092C524.685 123.282 518.855 121.602 514.185 119.222C508.015 116.082 507.195 112.242 507.255 110.232C507.315 108.262 508.325 104.552 514.475 101.862C520.595 99.1921 527.775 97.4021 535.235 96.7021C564.225 93.9821 592.395 100.932 618.755 108.282L627.675 110.772L618.705 113.092C591.975 120.012 570.085 125.152 548.045 125.152ZM548.365 101.082C544.155 101.082 539.935 101.262 535.705 101.662C528.765 102.312 522.115 103.962 516.475 106.422C513.865 107.562 512.285 109.042 512.245 110.372C512.205 111.742 513.815 113.432 516.455 114.772C520.615 116.892 525.875 118.402 531.665 119.132C556.395 122.262 579.645 117.812 608.355 110.592C589.055 105.452 568.895 101.082 548.365 101.082Z" fill="#396A6B"/>
<path d="M617.615 120.432L615.295 111.462C606.605 77.8921 600.735 51.9521 604.305 23.7821C605.115 17.4321 606.795 11.6021 609.175 6.93208C612.315 0.76208 616.165 -0.0479193 618.165 0.00208067C620.135 0.0620807 623.845 1.07208 626.535 7.22208C629.205 13.3421 630.995 20.5221 631.695 27.9821C634.425 56.9821 627.465 85.1421 620.115 111.502L617.615 120.432ZM617.965 4.98208C616.605 4.98208 614.945 6.59208 613.615 9.19208C611.495 13.3521 609.985 18.6121 609.255 24.4021C606.125 49.1321 610.575 72.3821 617.795 101.092C623.995 77.8421 629.075 53.3321 626.735 28.4421C626.085 21.5021 624.435 14.8521 621.975 9.21208C620.835 6.60208 619.355 5.02208 618.025 4.98208C617.995 4.98208 617.985 4.98208 617.965 4.98208Z" fill="#396A6B"/>
<path d="M617.595 221.622C617.525 221.622 617.465 221.622 617.405 221.622C615.435 221.562 611.725 220.552 609.035 214.402C606.365 208.282 604.575 201.102 603.875 193.642C601.145 164.642 608.105 136.482 615.455 110.122L617.945 101.202L620.265 110.172C628.955 143.742 634.825 169.682 631.255 197.852C630.445 204.202 628.765 210.032 626.385 214.702C623.355 220.662 619.655 221.622 617.595 221.622ZM617.775 120.522C611.575 143.772 606.495 168.282 608.835 193.172C609.485 200.112 611.135 206.762 613.595 212.402C614.735 215.012 616.215 216.592 617.545 216.632C618.895 216.642 620.605 215.062 621.945 212.422C624.065 208.262 625.575 203.002 626.305 197.212C629.455 172.482 624.995 149.242 617.775 120.522Z" fill="#396A6B"/>
<path d="M941.36 125.122C917 125.122 893.35 119.172 870.99 112.932L862.07 110.442L871.04 108.122C904.61 99.4321 930.55 93.5621 958.72 97.1321C965.07 97.9421 970.9 99.6221 975.57 102.002C981.74 105.142 982.56 108.982 982.5 110.992C982.44 112.962 981.43 116.672 975.28 119.362C969.16 122.032 961.98 123.822 954.52 124.522C950.11 124.932 945.72 125.122 941.36 125.122ZM881.4 110.612C904.65 116.812 929.16 121.892 954.05 119.552C960.99 118.902 967.64 117.252 973.28 114.792C975.89 113.652 977.47 112.172 977.51 110.842C977.55 109.472 975.94 107.782 973.3 106.442C969.14 104.322 963.88 102.812 958.09 102.082C933.36 98.9421 910.12 103.392 881.4 110.612Z" fill="#396A6B"/>
<path d="M801.67 125.152C796.04 125.152 790.39 124.822 784.66 124.092C778.31 123.282 772.48 121.602 767.81 119.222C761.64 116.082 760.82 112.242 760.88 110.232C760.94 108.262 761.95 104.552 768.1 101.862C774.22 99.1921 781.4 97.4021 788.86 96.7021C817.85 93.9821 846.02 100.932 872.38 108.282L881.3 110.772L872.33 113.092C845.6 120.012 823.71 125.152 801.67 125.152ZM801.99 101.082C797.78 101.082 793.56 101.262 789.33 101.662C782.39 102.312 775.74 103.962 770.1 106.422C767.49 107.562 765.91 109.042 765.87 110.372C765.83 111.742 767.44 113.432 770.08 114.772C774.24 116.892 779.5 118.402 785.29 119.132C810.02 122.262 833.27 117.812 861.98 110.592C842.68 105.452 822.52 101.082 801.99 101.082Z" fill="#396A6B"/>
<path d="M871.24 120.432L868.92 111.462C860.23 77.8921 854.36 51.9521 857.93 23.7821C858.74 17.4321 860.42 11.6021 862.8 6.93208C865.94 0.76208 869.79 -0.0479193 871.79 0.00208067C873.76 0.0620807 877.47 1.07208 880.16 7.22208C882.83 13.3421 884.62 20.5221 885.32 27.9821C888.05 56.9821 881.09 85.1421 873.74 111.502L871.24 120.432ZM871.59 4.98208C870.23 4.98208 868.57 6.59208 867.24 9.19208C865.12 13.3521 863.61 18.6121 862.88 24.4021C859.75 49.1321 864.2 72.3821 871.42 101.092C877.62 77.8421 882.7 53.3321 880.36 28.4421C879.71 21.5021 878.06 14.8521 875.6 9.21208C874.46 6.60208 872.98 5.02208 871.65 4.98208C871.62 4.98208 871.61 4.98208 871.59 4.98208Z" fill="#396A6B"/>
<path d="M871.22 221.622C871.15 221.622 871.09 221.622 871.03 221.622C869.06 221.562 865.35 220.552 862.66 214.402C859.99 208.282 858.2 201.102 857.5 193.642C854.77 164.642 861.73 136.482 869.08 110.122L871.57 101.202L873.89 110.172C882.58 143.742 888.45 169.682 884.88 197.852C884.07 204.202 882.39 210.032 880.01 214.702C876.98 220.662 873.28 221.622 871.22 221.622ZM871.4 120.522C865.2 143.772 860.12 168.282 862.46 193.172C863.11 200.112 864.76 206.762 867.22 212.402C868.36 215.012 869.84 216.592 871.17 216.632C872.52 216.642 874.23 215.062 875.57 212.422C877.69 208.262 879.2 203.002 879.93 197.212C883.08 172.482 878.62 149.242 871.4 120.522Z" fill="#396A6B"/>
<path d="M1194.99 125.122C1170.63 125.122 1146.98 119.172 1124.62 112.932L1115.7 110.442L1124.67 108.122C1158.24 99.4321 1184.18 93.5621 1212.35 97.1321C1218.7 97.9421 1224.53 99.6221 1229.2 102.002C1235.37 105.142 1236.19 108.982 1236.13 110.992C1236.07 112.962 1235.06 116.672 1228.91 119.362C1222.79 122.032 1215.61 123.822 1208.15 124.522C1203.74 124.932 1199.35 125.122 1194.99 125.122ZM1135.03 110.612C1158.28 116.812 1182.79 121.892 1207.68 119.552C1214.62 118.902 1221.27 117.252 1226.91 114.792C1229.52 113.652 1231.1 112.172 1231.14 110.842C1231.18 109.472 1229.57 107.782 1226.93 106.442C1222.77 104.322 1217.51 102.812 1211.72 102.082C1186.99 98.9421 1163.75 103.392 1135.03 110.612Z" fill="#396A6B"/>
<path d="M1055.3 125.152C1049.67 125.152 1044.02 124.822 1038.29 124.092C1031.94 123.282 1026.11 121.602 1021.44 119.222C1015.27 116.082 1014.45 112.242 1014.51 110.232C1014.57 108.262 1015.58 104.552 1021.73 101.862C1027.85 99.1921 1035.03 97.4021 1042.49 96.7021C1071.48 93.9821 1099.65 100.932 1126.01 108.282L1134.93 110.772L1125.96 113.092C1099.23 120.012 1077.34 125.152 1055.3 125.152ZM1055.62 101.082C1051.41 101.082 1047.19 101.262 1042.96 101.662C1036.02 102.312 1029.37 103.962 1023.73 106.422C1021.12 107.562 1019.54 109.042 1019.5 110.372C1019.46 111.742 1021.07 113.432 1023.71 114.772C1027.87 116.892 1033.13 118.402 1038.92 119.132C1063.65 122.262 1086.9 117.812 1115.61 110.592C1096.31 105.452 1076.15 101.082 1055.62 101.082Z" fill="#396A6B"/>
<path d="M1124.87 120.432L1122.55 111.462C1113.86 77.8921 1107.99 51.9521 1111.56 23.7821C1112.37 17.4321 1114.05 11.6021 1116.43 6.93208C1119.57 0.76208 1123.42 -0.0479193 1125.42 0.00208067C1127.39 0.0620807 1131.1 1.07208 1133.79 7.22208C1136.46 13.3421 1138.25 20.5221 1138.95 27.9821C1141.68 56.9821 1134.72 85.1421 1127.37 111.502L1124.87 120.432ZM1125.22 4.98208C1123.86 4.98208 1122.2 6.59208 1120.87 9.19208C1118.75 13.3521 1117.24 18.6121 1116.51 24.4021C1113.38 49.1321 1117.83 72.3821 1125.05 101.092C1131.25 77.8421 1136.33 53.3321 1133.99 28.4421C1133.34 21.5021 1131.69 14.8521 1129.23 9.21208C1128.09 6.60208 1126.61 5.02208 1125.28 4.98208C1125.25 4.98208 1125.24 4.98208 1125.22 4.98208Z" fill="#396A6B"/>
<path d="M1124.85 221.622C1124.78 221.622 1124.72 221.622 1124.66 221.622C1122.69 221.562 1118.98 220.552 1116.29 214.402C1113.62 208.282 1111.83 201.102 1111.13 193.642C1108.4 164.642 1115.36 136.482 1122.71 110.122L1125.2 101.202L1127.52 110.172C1136.21 143.742 1142.08 169.682 1138.51 197.852C1137.7 204.202 1136.02 210.032 1133.64 214.702C1130.61 220.662 1126.91 221.622 1124.85 221.622ZM1125.03 120.522C1118.83 143.772 1113.75 168.282 1116.09 193.172C1116.74 200.112 1118.39 206.762 1120.85 212.402C1121.99 215.012 1123.47 216.592 1124.8 216.632C1126.15 216.642 1127.86 215.062 1129.2 212.422C1131.32 208.262 1132.83 203.002 1133.56 197.212C1136.71 172.482 1132.25 149.242 1125.03 120.522Z" fill="#396A6B"/>
<path d="M180.483 378.744C156.123 378.744 132.473 372.794 110.113 366.554L101.193 364.064L110.163 361.744C143.733 353.054 169.673 347.184 197.843 350.754C204.193 351.564 210.023 353.244 214.693 355.624C220.863 358.764 221.683 362.604 221.623 364.614C221.563 366.584 220.553 370.294 214.403 372.984C208.283 375.654 201.103 377.444 193.643 378.144C189.233 378.554 184.843 378.744 180.483 378.744ZM120.523 364.234C143.773 370.434 168.283 375.514 193.173 373.174C200.113 372.524 206.763 370.874 212.403 368.414C215.013 367.274 216.593 365.794 216.633 364.464C216.673 363.094 215.063 361.404 212.423 360.064C208.263 357.944 203.003 356.434 197.213 355.704C172.483 352.564 149.243 357.014 120.523 364.234Z" fill="#396A6B"/>
<path d="M40.7929 378.774C35.1629 378.774 29.5129 378.444 23.7829 377.714C17.4329 376.904 11.6029 375.224 6.93291 372.844C0.76291 369.704 -0.0570892 365.864 0.00291076 363.854C0.0629108 361.884 1.07291 358.174 7.22291 355.484C13.3429 352.814 20.5229 351.024 27.9829 350.324C56.9729 347.604 85.1429 354.554 111.503 361.904L120.423 364.394L111.453 366.714C84.7229 373.634 62.8329 378.774 40.7929 378.774ZM41.1129 354.704C36.9029 354.704 32.6829 354.884 28.4529 355.284C21.5129 355.934 14.8629 357.584 9.22291 360.044C6.61291 361.184 5.03291 362.664 4.99291 363.994C4.95291 365.364 6.56291 367.054 9.20291 368.394C13.3629 370.514 18.6229 372.024 24.4129 372.754C49.1429 375.884 72.3929 371.434 101.103 364.214C81.8029 359.074 61.6429 354.704 41.1129 354.704Z" fill="#396A6B"/>
<path d="M110.363 374.054L108.043 365.084C99.3529 331.514 93.4829 305.574 97.0529 277.404C97.8629 271.054 99.5429 265.224 101.923 260.554C105.063 254.384 108.913 253.574 110.913 253.624C112.883 253.684 116.593 254.694 119.283 260.844C121.953 266.964 123.743 274.144 124.443 281.604C127.173 310.604 120.213 338.764 112.863 365.124L110.363 374.054ZM110.713 258.604C109.353 258.604 107.693 260.214 106.363 262.814C104.243 266.974 102.733 272.234 102.003 278.024C98.8729 302.754 103.323 326.004 110.543 354.714C116.743 331.464 121.823 306.954 119.483 282.064C118.833 275.124 117.183 268.474 114.723 262.834C113.583 260.224 112.103 258.644 110.773 258.604C110.743 258.604 110.733 258.604 110.713 258.604Z" fill="#396A6B"/>
<path d="M110.343 475.244C110.273 475.244 110.213 475.244 110.153 475.244C108.183 475.184 104.473 474.174 101.783 468.024C99.1129 461.904 97.3229 454.724 96.6229 447.264C93.8929 418.264 100.853 390.104 108.203 363.744L110.693 354.824L113.013 363.794C121.703 397.364 127.573 423.304 124.003 451.474C123.193 457.824 121.513 463.654 119.133 468.324C116.103 474.284 112.403 475.244 110.343 475.244ZM110.523 374.144C104.323 397.394 99.2429 421.904 101.583 446.794C102.233 453.734 103.883 460.384 106.343 466.024C107.483 468.634 108.963 470.214 110.293 470.254C111.643 470.264 113.353 468.684 114.693 466.044C116.813 461.884 118.323 456.624 119.053 450.834C122.203 426.104 117.743 402.864 110.523 374.144Z" fill="#396A6B"/>
<path d="M434.109 378.744C409.749 378.744 386.099 372.794 363.739 366.554L354.819 364.064L363.789 361.744C397.359 353.054 423.299 347.184 451.469 350.754C457.819 351.564 463.649 353.244 468.319 355.624C474.489 358.764 475.309 362.604 475.249 364.614C475.189 366.584 474.179 370.294 468.029 372.984C461.909 375.654 454.729 377.444 447.269 378.144C442.859 378.554 438.469 378.744 434.109 378.744ZM374.149 364.234C397.399 370.434 421.909 375.514 446.799 373.174C453.739 372.524 460.389 370.874 466.029 368.414C468.639 367.274 470.219 365.794 470.259 364.464C470.299 363.094 468.689 361.404 466.049 360.064C461.889 357.944 456.629 356.434 450.839 355.704C426.109 352.564 402.869 357.014 374.149 364.234Z" fill="#396A6B"/>
<path d="M294.419 378.774C288.789 378.774 283.139 378.444 277.409 377.714C271.059 376.904 265.229 375.224 260.559 372.844C254.389 369.704 253.569 365.864 253.629 363.854C253.689 361.884 254.699 358.174 260.849 355.484C266.969 352.814 274.149 351.024 281.609 350.324C310.599 347.604 338.769 354.554 365.129 361.904L374.049 364.394L365.079 366.714C338.349 373.634 316.459 378.774 294.419 378.774ZM294.739 354.704C290.529 354.704 286.309 354.884 282.079 355.284C275.139 355.934 268.489 357.584 262.849 360.044C260.239 361.184 258.659 362.664 258.619 363.994C258.579 365.364 260.189 367.054 262.829 368.394C266.989 370.514 272.249 372.024 278.039 372.754C302.769 375.884 326.019 371.434 354.729 364.214C335.429 359.074 315.269 354.704 294.739 354.704Z" fill="#396A6B"/>
<path d="M363.989 374.054L361.669 365.084C352.979 331.514 347.109 305.574 350.679 277.404C351.489 271.054 353.169 265.224 355.549 260.554C358.689 254.384 362.539 253.574 364.539 253.624C366.509 253.684 370.219 254.694 372.909 260.844C375.579 266.964 377.369 274.144 378.069 281.604C380.799 310.604 373.839 338.764 366.489 365.124L363.989 374.054ZM364.339 258.604C362.979 258.604 361.319 260.214 359.989 262.814C357.869 266.974 356.359 272.234 355.629 278.024C352.499 302.754 356.949 326.004 364.169 354.714C370.369 331.464 375.449 306.954 373.109 282.064C372.459 275.124 370.809 268.474 368.349 262.834C367.209 260.224 365.729 258.644 364.399 258.604C364.369 258.604 364.359 258.604 364.339 258.604Z" fill="#396A6B"/>
<path d="M363.969 475.244C363.899 475.244 363.839 475.244 363.779 475.244C361.809 475.184 358.099 474.174 355.409 468.024C352.739 461.904 350.949 454.724 350.249 447.264C347.519 418.264 354.479 390.104 361.829 363.744L364.319 354.824L366.639 363.794C375.329 397.364 381.199 423.304 377.629 451.474C376.819 457.824 375.139 463.654 372.759 468.324C369.729 474.284 366.029 475.244 363.969 475.244ZM364.149 374.144C357.949 397.394 352.869 421.904 355.209 446.794C355.859 453.734 357.509 460.384 359.969 466.024C361.109 468.634 362.589 470.214 363.919 470.254C365.269 470.264 366.979 468.684 368.319 466.044C370.439 461.884 371.949 456.624 372.679 450.834C375.829 426.104 371.369 402.864 364.149 374.144Z" fill="#396A6B"/>
<path d="M687.735 378.744C663.375 378.744 639.725 372.794 617.365 366.554L608.445 364.064L617.415 361.744C650.985 353.054 676.925 347.184 705.095 350.754C711.445 351.564 717.275 353.244 721.945 355.624C728.115 358.764 728.935 362.604 728.875 364.614C728.815 366.584 727.805 370.294 721.655 372.984C715.535 375.654 708.355 377.444 700.895 378.144C696.485 378.554 692.095 378.744 687.735 378.744ZM627.775 364.234C651.025 370.434 675.535 375.514 700.425 373.174C707.365 372.524 714.015 370.874 719.655 368.414C722.265 367.274 723.845 365.794 723.885 364.464C723.925 363.094 722.315 361.404 719.675 360.064C715.515 357.944 710.255 356.434 704.465 355.704C679.735 352.564 656.495 357.014 627.775 364.234Z" fill="#396A6B"/>
<path d="M548.045 378.774C542.415 378.774 536.765 378.444 531.035 377.714C524.685 376.904 518.855 375.224 514.185 372.844C508.015 369.704 507.195 365.864 507.255 363.854C507.315 361.884 508.325 358.174 514.475 355.484C520.595 352.814 527.775 351.024 535.235 350.324C564.225 347.604 592.395 354.554 618.755 361.904L627.675 364.394L618.705 366.714C591.975 373.634 570.085 378.774 548.045 378.774ZM548.365 354.704C544.155 354.704 539.935 354.884 535.705 355.284C528.765 355.934 522.115 357.584 516.475 360.044C513.865 361.184 512.285 362.664 512.245 363.994C512.205 365.364 513.815 367.054 516.455 368.394C520.615 370.514 525.875 372.024 531.665 372.754C556.395 375.884 579.645 371.434 608.355 364.214C589.055 359.074 568.895 354.704 548.365 354.704Z" fill="#396A6B"/>
<path d="M617.615 374.054L615.295 365.084C606.605 331.514 600.735 305.574 604.305 277.404C605.115 271.054 606.795 265.224 609.175 260.554C612.315 254.384 616.165 253.574 618.165 253.624C620.135 253.684 623.845 254.694 626.535 260.844C629.205 266.964 630.995 274.144 631.695 281.604C634.425 310.604 627.465 338.764 620.115 365.124L617.615 374.054ZM617.965 258.604C616.605 258.604 614.945 260.214 613.615 262.814C611.495 266.974 609.985 272.234 609.255 278.024C606.125 302.754 610.575 326.004 617.795 354.714C623.995 331.464 629.075 306.954 626.735 282.064C626.085 275.124 624.435 268.474 621.975 262.834C620.835 260.224 619.355 258.644 618.025 258.604C617.995 258.604 617.985 258.604 617.965 258.604Z" fill="#396A6B"/>
<path d="M617.595 475.244C617.525 475.244 617.465 475.244 617.405 475.244C615.435 475.184 611.725 474.174 609.035 468.024C606.365 461.904 604.575 454.724 603.875 447.264C601.145 418.264 608.105 390.104 615.455 363.744L617.945 354.824L620.265 363.794C628.955 397.364 634.825 423.304 631.255 451.474C630.445 457.824 628.765 463.654 626.385 468.324C623.355 474.284 619.655 475.244 617.595 475.244ZM617.775 374.144C611.575 397.394 606.495 421.904 608.835 446.794C609.485 453.734 611.135 460.384 613.595 466.024C614.735 468.634 616.215 470.214 617.545 470.254C618.895 470.264 620.605 468.684 621.945 466.044C624.065 461.884 625.575 456.624 626.305 450.834C629.455 426.104 624.995 402.864 617.775 374.144Z" fill="#396A6B"/>
<path d="M941.36 378.744C917 378.744 893.35 372.794 870.99 366.554L862.07 364.064L871.04 361.744C904.61 353.054 930.55 347.184 958.72 350.754C965.07 351.564 970.9 353.244 975.57 355.624C981.74 358.764 982.56 362.604 982.5 364.614C982.44 366.584 981.43 370.294 975.28 372.984C969.16 375.654 961.98 377.444 954.52 378.144C950.11 378.554 945.72 378.744 941.36 378.744ZM881.4 364.234C904.65 370.434 929.16 375.514 954.05 373.174C960.99 372.524 967.64 370.874 973.28 368.414C975.89 367.274 977.47 365.794 977.51 364.464C977.55 363.094 975.94 361.404 973.3 360.064C969.14 357.944 963.88 356.434 958.09 355.704C933.36 352.564 910.12 357.014 881.4 364.234Z" fill="#396A6B"/>
<path d="M801.67 378.774C796.04 378.774 790.39 378.444 784.66 377.714C778.31 376.904 772.48 375.224 767.81 372.844C761.64 369.704 760.82 365.864 760.88 363.854C760.94 361.884 761.95 358.174 768.1 355.484C774.22 352.814 781.4 351.024 788.86 350.324C817.85 347.604 846.02 354.554 872.38 361.904L881.3 364.394L872.33 366.714C845.6 373.634 823.71 378.774 801.67 378.774ZM801.99 354.704C797.78 354.704 793.56 354.884 789.33 355.284C782.39 355.934 775.74 357.584 770.1 360.044C767.49 361.184 765.91 362.664 765.87 363.994C765.83 365.364 767.44 367.054 770.08 368.394C774.24 370.514 779.5 372.024 785.29 372.754C810.02 375.884 833.27 371.434 861.98 364.214C842.68 359.074 822.52 354.704 801.99 354.704Z" fill="#396A6B"/>
<path d="M871.24 374.054L868.92 365.084C860.23 331.514 854.36 305.574 857.93 277.404C858.74 271.054 860.42 265.224 862.8 260.554C865.94 254.384 869.79 253.574 871.79 253.624C873.76 253.684 877.47 254.694 880.16 260.844C882.83 266.964 884.62 274.144 885.32 281.604C888.05 310.604 881.09 338.764 873.74 365.124L871.24 374.054ZM871.59 258.604C870.23 258.604 868.57 260.214 867.24 262.814C865.12 266.974 863.61 272.234 862.88 278.024C859.75 302.754 864.2 326.004 871.42 354.714C877.62 331.464 882.7 306.954 880.36 282.064C879.71 275.124 878.06 268.474 875.6 262.834C874.46 260.224 872.98 258.644 871.65 258.604C871.62 258.604 871.61 258.604 871.59 258.604Z" fill="#396A6B"/>
<path d="M871.22 475.244C871.15 475.244 871.09 475.244 871.03 475.244C869.06 475.184 865.35 474.174 862.66 468.024C859.99 461.904 858.2 454.724 857.5 447.264C854.77 418.264 861.73 390.104 869.08 363.744L871.57 354.824L873.89 363.794C882.58 397.364 888.45 423.304 884.88 451.474C884.07 457.824 882.39 463.654 880.01 468.324C876.98 474.284 873.28 475.244 871.22 475.244ZM871.4 374.144C865.2 397.394 860.12 421.904 862.46 446.794C863.11 453.734 864.76 460.384 867.22 466.024C868.36 468.634 869.84 470.214 871.17 470.254C872.52 470.264 874.23 468.684 875.57 466.044C877.69 461.884 879.2 456.624 879.93 450.834C883.08 426.104 878.62 402.864 871.4 374.144Z" fill="#396A6B"/>
<path d="M1194.99 378.744C1170.63 378.744 1146.98 372.794 1124.62 366.554L1115.7 364.064L1124.67 361.744C1158.24 353.054 1184.18 347.184 1212.35 350.754C1218.7 351.564 1224.53 353.244 1229.2 355.624C1235.37 358.764 1236.19 362.604 1236.13 364.614C1236.07 366.584 1235.06 370.294 1228.91 372.984C1222.79 375.654 1215.61 377.444 1208.15 378.144C1203.74 378.554 1199.35 378.744 1194.99 378.744ZM1135.03 364.234C1158.28 370.434 1182.79 375.514 1207.68 373.174C1214.62 372.524 1221.27 370.874 1226.91 368.414C1229.52 367.274 1231.1 365.794 1231.14 364.464C1231.18 363.094 1229.57 361.404 1226.93 360.064C1222.77 357.944 1217.51 356.434 1211.72 355.704C1186.99 352.564 1163.75 357.014 1135.03 364.234Z" fill="#396A6B"/>
<path d="M1055.3 378.774C1049.67 378.774 1044.02 378.444 1038.29 377.714C1031.94 376.904 1026.11 375.224 1021.44 372.844C1015.27 369.704 1014.45 365.864 1014.51 363.854C1014.57 361.884 1015.58 358.174 1021.73 355.484C1027.85 352.814 1035.03 351.024 1042.49 350.324C1071.48 347.604 1099.65 354.554 1126.01 361.904L1134.93 364.394L1125.96 366.714C1099.23 373.634 1077.34 378.774 1055.3 378.774ZM1055.62 354.704C1051.41 354.704 1047.19 354.884 1042.96 355.284C1036.02 355.934 1029.37 357.584 1023.73 360.044C1021.12 361.184 1019.54 362.664 1019.5 363.994C1019.46 365.364 1021.07 367.054 1023.71 368.394C1027.87 370.514 1033.13 372.024 1038.92 372.754C1063.65 375.884 1086.9 371.434 1115.61 364.214C1096.31 359.074 1076.15 354.704 1055.62 354.704Z" fill="#396A6B"/>
<path d="M1124.87 374.054L1122.55 365.084C1113.86 331.514 1107.99 305.574 1111.56 277.404C1112.37 271.054 1114.05 265.224 1116.43 260.554C1119.57 254.384 1123.42 253.574 1125.42 253.624C1127.39 253.684 1131.1 254.694 1133.79 260.844C1136.46 266.964 1138.25 274.144 1138.95 281.604C1141.68 310.604 1134.72 338.764 1127.37 365.124L1124.87 374.054ZM1125.22 258.604C1123.86 258.604 1122.2 260.214 1120.87 262.814C1118.75 266.974 1117.24 272.234 1116.51 278.024C1113.38 302.754 1117.83 326.004 1125.05 354.714C1131.25 331.464 1136.33 306.954 1133.99 282.064C1133.34 275.124 1131.69 268.474 1129.23 262.834C1128.09 260.224 1126.61 258.644 1125.28 258.604C1125.25 258.604 1125.24 258.604 1125.22 258.604Z" fill="#396A6B"/>
<path d="M1124.85 475.244C1124.78 475.244 1124.72 475.244 1124.66 475.244C1122.69 475.184 1118.98 474.174 1116.29 468.024C1113.62 461.904 1111.83 454.724 1111.13 447.264C1108.4 418.264 1115.36 390.104 1122.71 363.744L1125.2 354.824L1127.52 363.794C1136.21 397.364 1142.08 423.304 1138.51 451.474C1137.7 457.824 1136.02 463.654 1133.64 468.324C1130.61 474.284 1126.91 475.244 1124.85 475.244ZM1125.03 374.144C1118.83 397.394 1113.75 421.904 1116.09 446.794C1116.74 453.734 1118.39 460.384 1120.85 466.024C1121.99 468.634 1123.47 470.214 1124.8 470.254C1126.15 470.264 1127.86 468.684 1129.2 466.044C1131.32 461.884 1132.83 456.624 1133.56 450.834C1136.71 426.104 1132.25 402.864 1125.03 374.144Z" fill="#396A6B"/>
<path d="M180.483 632.366C156.123 632.366 132.473 626.416 110.113 620.176L101.193 617.686L110.163 615.366C143.733 606.676 169.673 600.806 197.843 604.376C204.193 605.186 210.023 606.866 214.693 609.246C220.863 612.386 221.683 616.226 221.623 618.236C221.563 620.206 220.553 623.916 214.403 626.606C208.283 629.276 201.103 631.066 193.643 631.766C189.233 632.176 184.843 632.366 180.483 632.366ZM120.523 617.856C143.773 624.056 168.283 629.136 193.173 626.796C200.113 626.146 206.763 624.496 212.403 622.036C215.013 620.896 216.593 619.416 216.633 618.086C216.673 616.716 215.063 615.026 212.423 613.686C208.263 611.566 203.003 610.056 197.213 609.326C172.483 606.186 149.243 610.636 120.523 617.856Z" fill="#396A6B"/>
<path d="M40.7929 632.396C35.1629 632.396 29.5129 632.066 23.7829 631.336C17.4329 630.526 11.6029 628.846 6.93291 626.466C0.76291 623.326 -0.0570892 619.486 0.00291076 617.476C0.0629108 615.506 1.07291 611.796 7.22291 609.106C13.3429 606.436 20.5229 604.646 27.9829 603.946C56.9729 601.226 85.1429 608.176 111.503 615.526L120.423 618.016L111.453 620.336C84.7229 627.256 62.8329 632.396 40.7929 632.396ZM41.1129 608.326C36.9029 608.326 32.6829 608.506 28.4529 608.906C21.5129 609.556 14.8629 611.206 9.22291 613.666C6.61291 614.806 5.03291 616.286 4.99291 617.616C4.95291 618.986 6.56291 620.676 9.20291 622.016C13.3629 624.136 18.6229 625.646 24.4129 626.376C49.1429 629.506 72.3929 625.056 101.103 617.836C81.8029 612.696 61.6429 608.326 41.1129 608.326Z" fill="#396A6B"/>
<path d="M110.363 627.676L108.043 618.706C99.3529 585.136 93.4829 559.196 97.0529 531.026C97.8629 524.676 99.5429 518.846 101.923 514.176C105.063 508.006 108.913 507.196 110.913 507.246C112.883 507.306 116.593 508.316 119.283 514.466C121.953 520.586 123.743 527.766 124.443 535.226C127.173 564.226 120.213 592.386 112.863 618.746L110.363 627.676ZM110.713 512.226C109.353 512.226 107.693 513.836 106.363 516.436C104.243 520.596 102.733 525.856 102.003 531.646C98.8729 556.376 103.323 579.626 110.543 608.336C116.743 585.086 121.823 560.576 119.483 535.686C118.833 528.746 117.183 522.096 114.723 516.456C113.583 513.846 112.103 512.266 110.773 512.226C110.743 512.226 110.733 512.226 110.713 512.226Z" fill="#396A6B"/>
<path d="M110.343 728.866C110.273 728.866 110.213 728.866 110.153 728.866C108.183 728.806 104.473 727.796 101.783 721.646C99.1129 715.526 97.3229 708.346 96.6229 700.886C93.8929 671.886 100.853 643.726 108.203 617.366L110.693 608.446L113.013 617.416C121.703 650.986 127.573 676.926 124.003 705.096C123.193 711.446 121.513 717.276 119.133 721.946C116.103 727.906 112.403 728.866 110.343 728.866ZM110.523 627.766C104.323 651.016 99.2429 675.526 101.583 700.416C102.233 707.356 103.883 714.006 106.343 719.646C107.483 722.256 108.963 723.836 110.293 723.876C111.643 723.886 113.353 722.306 114.693 719.666C116.813 715.506 118.323 710.246 119.053 704.456C122.203 679.726 117.743 656.486 110.523 627.766Z" fill="#396A6B"/>
<path d="M434.109 632.366C409.749 632.366 386.099 626.416 363.739 620.176L354.819 617.686L363.789 615.366C397.359 606.676 423.299 600.806 451.469 604.376C457.819 605.186 463.649 606.866 468.319 609.246C474.489 612.386 475.309 616.226 475.249 618.236C475.189 620.206 474.179 623.916 468.029 626.606C461.909 629.276 454.729 631.066 447.269 631.766C442.859 632.176 438.469 632.366 434.109 632.366ZM374.149 617.856C397.399 624.056 421.909 629.136 446.799 626.796C453.739 626.146 460.389 624.496 466.029 622.036C468.639 620.896 470.219 619.416 470.259 618.086C470.299 616.716 468.689 615.026 466.049 613.686C461.889 611.566 456.629 610.056 450.839 609.326C426.109 606.186 402.869 610.636 374.149 617.856Z" fill="#396A6B"/>
<path d="M294.419 632.396C288.789 632.396 283.139 632.066 277.409 631.336C271.059 630.526 265.229 628.846 260.559 626.466C254.389 623.326 253.569 619.486 253.629 617.476C253.689 615.506 254.699 611.796 260.849 609.106C266.969 606.436 274.149 604.646 281.609 603.946C310.599 601.226 338.769 608.176 365.129 615.526L374.049 618.016L365.079 620.336C338.349 627.256 316.459 632.396 294.419 632.396ZM294.739 608.326C290.529 608.326 286.309 608.506 282.079 608.906C275.139 609.556 268.489 611.206 262.849 613.666C260.239 614.806 258.659 616.286 258.619 617.616C258.579 618.986 260.189 620.676 262.829 622.016C266.989 624.136 272.249 625.646 278.039 626.376C302.769 629.506 326.019 625.056 354.729 617.836C335.429 612.696 315.269 608.326 294.739 608.326Z" fill="#396A6B"/>
<path d="M363.989 627.676L361.669 618.706C352.979 585.136 347.109 559.196 350.679 531.026C351.489 524.676 353.169 518.846 355.549 514.176C358.689 508.006 362.539 507.196 364.539 507.246C366.509 507.306 370.219 508.316 372.909 514.466C375.579 520.586 377.369 527.766 378.069 535.226C380.799 564.226 373.839 592.386 366.489 618.746L363.989 627.676ZM364.339 512.226C362.979 512.226 361.319 513.836 359.989 516.436C357.869 520.596 356.359 525.856 355.629 531.646C352.499 556.376 356.949 579.626 364.169 608.336C370.369 585.086 375.449 560.576 373.109 535.686C372.459 528.746 370.809 522.096 368.349 516.456C367.209 513.846 365.729 512.266 364.399 512.226C364.369 512.226 364.359 512.226 364.339 512.226Z" fill="#396A6B"/>
<path d="M363.969 728.866C363.899 728.866 363.839 728.866 363.779 728.866C361.809 728.806 358.099 727.796 355.409 721.646C352.739 715.526 350.949 708.346 350.249 700.886C347.519 671.886 354.479 643.726 361.829 617.366L364.319 608.446L366.639 617.416C375.329 650.986 381.199 676.926 377.629 705.096C376.819 711.446 375.139 717.276 372.759 721.946C369.729 727.906 366.029 728.866 363.969 728.866ZM364.149 627.766C357.949 651.016 352.869 675.526 355.209 700.416C355.859 707.356 357.509 714.006 359.969 719.646C361.109 722.256 362.589 723.836 363.919 723.876C365.269 723.886 366.979 722.306 368.319 719.666C370.439 715.506 371.949 710.246 372.679 704.456C375.829 679.726 371.369 656.486 364.149 627.766Z" fill="#396A6B"/>
<path d="M687.735 632.366C663.375 632.366 639.725 626.416 617.365 620.176L608.445 617.686L617.415 615.366C650.985 606.676 676.925 600.806 705.095 604.376C711.445 605.186 717.275 606.866 721.945 609.246C728.115 612.386 728.935 616.226 728.875 618.236C728.815 620.206 727.805 623.916 721.655 626.606C715.535 629.276 708.355 631.066 700.895 631.766C696.485 632.176 692.095 632.366 687.735 632.366ZM627.775 617.856C651.025 624.056 675.535 629.136 700.425 626.796C707.365 626.146 714.015 624.496 719.655 622.036C722.265 620.896 723.845 619.416 723.885 618.086C723.925 616.716 722.315 615.026 719.675 613.686C715.515 611.566 710.255 610.056 704.465 609.326C679.735 606.186 656.495 610.636 627.775 617.856Z" fill="#396A6B"/>
<path d="M548.045 632.396C542.415 632.396 536.765 632.066 531.035 631.336C524.685 630.526 518.855 628.846 514.185 626.466C508.015 623.326 507.195 619.486 507.255 617.476C507.315 615.506 508.325 611.796 514.475 609.106C520.595 606.436 527.775 604.646 535.235 603.946C564.225 601.226 592.395 608.176 618.755 615.526L627.675 618.016L618.705 620.336C591.975 627.256 570.085 632.396 548.045 632.396ZM548.365 608.326C544.155 608.326 539.935 608.506 535.705 608.906C528.765 609.556 522.115 611.206 516.475 613.666C513.865 614.806 512.285 616.286 512.245 617.616C512.205 618.986 513.815 620.676 516.455 622.016C520.615 624.136 525.875 625.646 531.665 626.376C556.395 629.506 579.645 625.056 608.355 617.836C589.055 612.696 568.895 608.326 548.365 608.326Z" fill="#396A6B"/>
<path d="M617.615 627.676L615.295 618.706C606.605 585.136 600.735 559.196 604.305 531.026C605.115 524.676 606.795 518.846 609.175 514.176C612.315 508.006 616.165 507.196 618.165 507.246C620.135 507.306 623.845 508.316 626.535 514.466C629.205 520.586 630.995 527.766 631.695 535.226C634.425 564.226 627.465 592.386 620.115 618.746L617.615 627.676ZM617.965 512.226C616.605 512.226 614.945 513.836 613.615 516.436C611.495 520.596 609.985 525.856 609.255 531.646C606.125 556.376 610.575 579.626 617.795 608.336C623.995 585.086 629.075 560.576 626.735 535.686C626.085 528.746 624.435 522.096 621.975 516.456C620.835 513.846 619.355 512.266 618.025 512.226C617.995 512.226 617.985 512.226 617.965 512.226Z" fill="#396A6B"/>
<path d="M617.595 728.866C617.525 728.866 617.465 728.866 617.405 728.866C615.435 728.806 611.725 727.796 609.035 721.646C606.365 715.526 604.575 708.346 603.875 700.886C601.145 671.886 608.105 643.726 615.455 617.366L617.945 608.446L620.265 617.416C628.955 650.986 634.825 676.926 631.255 705.096C630.445 711.446 628.765 717.276 626.385 721.946C623.355 727.906 619.655 728.866 617.595 728.866ZM617.775 627.766C611.575 651.016 606.495 675.526 608.835 700.416C609.485 707.356 611.135 714.006 613.595 719.646C614.735 722.256 616.215 723.836 617.545 723.876C618.895 723.886 620.605 722.306 621.945 719.666C624.065 715.506 625.575 710.246 626.305 704.456C629.455 679.726 624.995 656.486 617.775 627.766Z" fill="#396A6B"/>
<path d="M941.36 632.366C917 632.366 893.35 626.416 870.99 620.176L862.07 617.686L871.04 615.366C904.61 606.676 930.55 600.806 958.72 604.376C965.07 605.186 970.9 606.866 975.57 609.246C981.74 612.386 982.56 616.226 982.5 618.236C982.44 620.206 981.43 623.916 975.28 626.606C969.16 629.276 961.98 631.066 954.52 631.766C950.11 632.176 945.72 632.366 941.36 632.366ZM881.4 617.856C904.65 624.056 929.16 629.136 954.05 626.796C960.99 626.146 967.64 624.496 973.28 622.036C975.89 620.896 977.47 619.416 977.51 618.086C977.55 616.716 975.94 615.026 973.3 613.686C969.14 611.566 963.88 610.056 958.09 609.326C933.36 606.186 910.12 610.636 881.4 617.856Z" fill="#396A6B"/>
<path d="M801.67 632.396C796.04 632.396 790.39 632.066 784.66 631.336C778.31 630.526 772.48 628.846 767.81 626.466C761.64 623.326 760.82 619.486 760.88 617.476C760.94 615.506 761.95 611.796 768.1 609.106C774.22 606.436 781.4 604.646 788.86 603.946C817.85 601.226 846.02 608.176 872.38 615.526L881.3 618.016L872.33 620.336C845.6 627.256 823.71 632.396 801.67 632.396ZM801.99 608.326C797.78 608.326 793.56 608.506 789.33 608.906C782.39 609.556 775.74 611.206 770.1 613.666C767.49 614.806 765.91 616.286 765.87 617.616C765.83 618.986 767.44 620.676 770.08 622.016C774.24 624.136 779.5 625.646 785.29 626.376C810.02 629.506 833.27 625.056 861.98 617.836C842.68 612.696 822.52 608.326 801.99 608.326Z" fill="#396A6B"/>
<path d="M871.24 627.676L868.92 618.706C860.23 585.136 854.36 559.196 857.93 531.026C858.74 524.676 860.42 518.846 862.8 514.176C865.94 508.006 869.79 507.196 871.79 507.246C873.76 507.306 877.47 508.316 880.16 514.466C882.83 520.586 884.62 527.766 885.32 535.226C888.05 564.226 881.09 592.386 873.74 618.746L871.24 627.676ZM871.59 512.226C870.23 512.226 868.57 513.836 867.24 516.436C865.12 520.596 863.61 525.856 862.88 531.646C859.75 556.376 864.2 579.626 871.42 608.336C877.62 585.086 882.7 560.576 880.36 535.686C879.71 528.746 878.06 522.096 875.6 516.456C874.46 513.846 872.98 512.266 871.65 512.226C871.62 512.226 871.61 512.226 871.59 512.226Z" fill="#396A6B"/>
<path d="M871.22 728.866C871.15 728.866 871.09 728.866 871.03 728.866C869.06 728.806 865.35 727.796 862.66 721.646C859.99 715.526 858.2 708.346 857.5 700.886C854.77 671.886 861.73 643.726 869.08 617.366L871.57 608.446L873.89 617.416C882.58 650.986 888.45 676.926 884.88 705.096C884.07 711.446 882.39 717.276 880.01 721.946C876.98 727.906 873.28 728.866 871.22 728.866ZM871.4 627.766C865.2 651.016 860.12 675.526 862.46 700.416C863.11 707.356 864.76 714.006 867.22 719.646C868.36 722.256 869.84 723.836 871.17 723.876C872.52 723.886 874.23 722.306 875.57 719.666C877.69 715.506 879.2 710.246 879.93 704.456C883.08 679.726 878.62 656.486 871.4 627.766Z" fill="#396A6B"/>
<path d="M1194.99 632.366C1170.63 632.366 1146.98 626.416 1124.62 620.176L1115.7 617.686L1124.67 615.366C1158.24 606.676 1184.18 600.806 1212.35 604.376C1218.7 605.186 1224.53 606.866 1229.2 609.246C1235.37 612.386 1236.19 616.226 1236.13 618.236C1236.07 620.206 1235.06 623.916 1228.91 626.606C1222.79 629.276 1215.61 631.066 1208.15 631.766C1203.74 632.176 1199.35 632.366 1194.99 632.366ZM1135.03 617.856C1158.28 624.056 1182.79 629.136 1207.68 626.796C1214.62 626.146 1221.27 624.496 1226.91 622.036C1229.52 620.896 1231.1 619.416 1231.14 618.086C1231.18 616.716 1229.57 615.026 1226.93 613.686C1222.77 611.566 1217.51 610.056 1211.72 609.326C1186.99 606.186 1163.75 610.636 1135.03 617.856Z" fill="#396A6B"/>
<path d="M1055.3 632.396C1049.67 632.396 1044.02 632.066 1038.29 631.336C1031.94 630.526 1026.11 628.846 1021.44 626.466C1015.27 623.326 1014.45 619.486 1014.51 617.476C1014.57 615.506 1015.58 611.796 1021.73 609.106C1027.85 606.436 1035.03 604.646 1042.49 603.946C1071.48 601.226 1099.65 608.176 1126.01 615.526L1134.93 618.016L1125.96 620.336C1099.23 627.256 1077.34 632.396 1055.3 632.396ZM1055.62 608.326C1051.41 608.326 1047.19 608.506 1042.96 608.906C1036.02 609.556 1029.37 611.206 1023.73 613.666C1021.12 614.806 1019.54 616.286 1019.5 617.616C1019.46 618.986 1021.07 620.676 1023.71 622.016C1027.87 624.136 1033.13 625.646 1038.92 626.376C1063.65 629.506 1086.9 625.056 1115.61 617.836C1096.31 612.696 1076.15 608.326 1055.62 608.326Z" fill="#396A6B"/>
<path d="M1124.87 627.676L1122.55 618.706C1113.86 585.136 1107.99 559.196 1111.56 531.026C1112.37 524.676 1114.05 518.846 1116.43 514.176C1119.57 508.006 1123.42 507.196 1125.42 507.246C1127.39 507.306 1131.1 508.316 1133.79 514.466C1136.46 520.586 1138.25 527.766 1138.95 535.226C1141.68 564.226 1134.72 592.386 1127.37 618.746L1124.87 627.676ZM1125.22 512.226C1123.86 512.226 1122.2 513.836 1120.87 516.436C1118.75 520.596 1117.24 525.856 1116.51 531.646C1113.38 556.376 1117.83 579.626 1125.05 608.336C1131.25 585.086 1136.33 560.576 1133.99 535.686C1133.34 528.746 1131.69 522.096 1129.23 516.456C1128.09 513.846 1126.61 512.266 1125.28 512.226C1125.25 512.226 1125.24 512.226 1125.22 512.226Z" fill="#396A6B"/>
<path d="M1124.85 728.866C1124.78 728.866 1124.72 728.866 1124.66 728.866C1122.69 728.806 1118.98 727.796 1116.29 721.646C1113.62 715.526 1111.83 708.346 1111.13 700.886C1108.4 671.886 1115.36 643.726 1122.71 617.366L1125.2 608.446L1127.52 617.416C1136.21 650.986 1142.08 676.926 1138.51 705.096C1137.7 711.446 1136.02 717.276 1133.64 721.946C1130.61 727.906 1126.91 728.866 1124.85 728.866ZM1125.03 627.766C1118.83 651.016 1113.75 675.526 1116.09 700.416C1116.74 707.356 1118.39 714.006 1120.85 719.646C1121.99 722.256 1123.47 723.836 1124.8 723.876C1126.15 723.886 1127.86 722.306 1129.2 719.666C1131.32 715.506 1132.83 710.246 1133.56 704.456C1136.71 679.726 1132.25 656.486 1125.03 627.766Z" fill="#396A6B"/>
</g>
</svg>
