<svg width="326" height="96" viewBox="0 0 326 96" fill="none" xmlns="http://www.w3.org/2000/svg">
<path d="M105.793 58.6852C104.343 57.9313 103.197 56.8304 102.357 55.38V59.3817H98.3557V29.6765H102.357V42.1591C103.169 40.74 104.343 39.6287 105.879 38.833C107.416 38.0348 109.169 37.6383 111.141 37.6383C114.446 37.6383 117.063 38.6243 118.99 40.5965C120.918 42.5687 121.884 45.2661 121.884 48.6861C121.884 50.8904 121.427 52.8313 120.514 54.5139C119.601 56.1965 118.317 57.5009 116.666 58.4269C115.012 59.3556 113.084 59.8174 110.883 59.8174C108.939 59.8174 107.244 59.4391 105.793 58.6878V58.6852ZM115.774 55.4661C117.18 53.7261 117.884 51.4356 117.884 48.5948C117.884 45.7539 117.204 43.5052 115.839 41.8539C114.475 40.2 112.62 39.3756 110.272 39.3756C108.707 39.3756 107.322 39.7669 106.119 40.5496C104.917 41.3322 103.988 42.4356 103.336 43.8548C102.684 45.2765 102.357 46.9148 102.357 48.7696C102.357 51.5817 103.067 53.8356 104.489 55.5313C105.908 57.2269 107.794 58.0748 110.142 58.0748C112.49 58.0748 114.368 57.2061 115.774 55.4661Z" fill="#EDDACC"/>
<path d="M129.407 58.4452C127.552 57.5322 126.115 56.2356 125.103 54.553C124.088 52.873 123.582 50.9296 123.582 48.7252C123.582 46.5209 124.088 44.58 125.103 42.8974C126.117 41.2174 127.552 39.9183 129.407 39.0052C131.262 38.0922 133.422 37.6357 135.887 37.6357C138.352 37.6357 140.517 38.0922 142.388 39.0052C144.258 39.9183 145.701 41.2174 146.716 42.8974C147.73 44.58 148.237 46.5209 148.237 48.7252C148.237 50.9296 147.728 52.8704 146.716 54.553C145.701 56.2356 144.258 57.5322 142.388 58.4452C140.517 59.3583 138.35 59.8148 135.887 59.8148C133.424 59.8148 131.262 59.3583 129.407 58.4452ZM141.976 55.5522C143.455 53.8983 144.193 51.6235 144.193 48.7252C144.193 45.827 143.455 43.5496 141.976 41.8983C140.497 40.2443 138.467 39.42 135.887 39.42C133.307 39.42 131.283 40.247 129.819 41.8983C128.356 43.5522 127.623 45.827 127.623 48.7252C127.623 51.6235 128.356 53.9009 129.819 55.5522C131.283 57.2061 133.304 58.0304 135.887 58.0304C138.47 58.0304 140.497 57.2035 141.976 55.5522Z" fill="#EDDACC"/>
<path d="M152.478 58.1191C151.015 56.9896 150.282 55.38 150.282 53.293C150.282 51.06 151.166 49.3565 152.935 48.1826C154.704 47.0087 157.284 46.4217 160.675 46.4217H167.024V44.8565C167.024 43.0878 166.487 41.7391 165.415 40.813C164.343 39.8843 162.791 39.4226 160.761 39.4226C158.846 39.4226 157.31 39.8661 156.151 40.7478C154.991 41.6322 154.31 42.887 154.106 44.5096H150.976C151.265 42.3078 152.28 40.6096 154.02 39.42C155.76 38.2304 158.079 37.6357 160.978 37.6357C164.225 37.6357 166.704 38.2956 168.415 39.6156C170.126 40.9356 170.982 42.8426 170.982 45.3339V52.38C170.982 54.8739 171.198 57.2061 171.634 59.3817H167.893C167.575 58.0774 167.371 56.8304 167.285 55.6409C165.545 58.4243 162.746 59.8148 158.891 59.8148C156.078 59.8148 153.939 59.2487 152.476 58.1191H152.478ZM163.524 57.1852C164.611 56.5617 165.464 55.7296 166.091 54.6835C166.714 53.64 167.024 52.4817 167.024 51.2035V48.2035H161.763C159.211 48.2035 157.32 48.6156 156.086 49.4426C154.852 50.2696 154.237 51.5374 154.237 53.2487C154.237 54.8426 154.714 56.053 155.671 56.88C156.629 57.707 158.035 58.1191 159.89 58.1191C161.223 58.1191 162.433 57.8087 163.521 57.1852H163.524Z" fill="#EDDACC"/>
<path d="M186.444 58.1426C184.631 57.0261 183.48 55.3957 182.987 53.2513H187.291C187.552 54.7017 188.233 55.8104 189.337 56.5774C190.437 57.347 191.961 57.7304 193.902 57.7304C195.699 57.7304 197.126 57.3678 198.185 56.6426C199.244 55.9174 199.771 54.947 199.771 53.7287C199.771 51.8452 197.786 50.5983 193.813 49.9878C190.13 49.4087 187.492 48.6261 185.898 47.64C184.304 46.6539 183.506 45.3209 183.506 43.6383C183.506 41.7835 184.404 40.32 186.204 39.2452C188.001 38.173 190.581 37.6357 193.944 37.6357C197.306 37.6357 199.779 38.1861 201.707 39.2896C203.635 40.393 204.744 41.9713 205.033 44.0296H200.771C200.481 42.6391 199.784 41.5722 198.684 40.8339C197.58 40.0956 196.177 39.7252 194.465 39.7252C192.754 39.7252 191.523 39.9939 190.594 40.5287C189.665 41.0661 189.204 41.8278 189.204 42.8113C189.204 43.3904 189.355 43.8756 189.66 44.267C189.965 44.6583 190.552 45.0052 191.421 45.3104C192.29 45.6157 193.581 45.913 195.292 46.2026C198.801 46.7817 201.373 47.6322 203.011 48.7461C204.65 49.8626 205.469 51.3496 205.469 53.2043C205.469 55.38 204.462 57.0235 202.445 58.14C200.429 59.2565 197.538 59.8148 193.769 59.8148C190.696 59.8148 188.251 59.2565 186.441 58.14L186.444 58.1426Z" fill="#EDDACC"/>
<path d="M213.274 58.4687C211.317 57.5713 209.81 56.2878 208.751 54.6209C207.691 52.9539 207.164 50.9895 207.164 48.7278C207.164 46.4661 207.694 44.5017 208.751 42.8348C209.81 41.1678 211.317 39.8843 213.274 38.9869C215.231 38.0895 217.529 37.6382 220.166 37.6382C222.804 37.6382 225.102 38.0869 227.058 38.9869C229.015 39.8869 230.515 41.1678 231.558 42.8348C232.602 44.5017 233.124 46.4661 233.124 48.7278C233.124 50.9895 232.602 52.9539 231.558 54.6209C230.515 56.2878 229.015 57.5713 227.058 58.4687C225.102 59.3687 222.804 59.8174 220.166 59.8174C217.529 59.8174 215.231 59.3687 213.274 58.4687ZM225.517 55.3148C226.821 53.7052 227.473 51.5087 227.473 48.7252C227.473 45.9417 226.821 43.7452 225.517 42.1356C224.212 40.5261 222.428 39.7226 220.166 39.7226C217.904 39.7226 216.123 40.5261 214.816 42.1356C213.511 43.7452 212.859 45.9417 212.859 48.7252C212.859 51.5087 213.511 53.7052 214.816 55.3148C216.12 56.9243 217.904 57.7278 220.166 57.7278C222.428 57.7278 224.21 56.9243 225.517 55.3148Z" fill="#EDDACC"/>
<path d="M235.477 38.0713H241.13V42.5061C241.651 40.9696 242.507 39.7748 243.697 38.9191C244.886 38.0635 246.363 37.6357 248.131 37.6357C248.653 37.6357 249.146 37.693 249.61 37.8104L249.219 41.2461C248.755 41.0139 248.147 40.8991 247.393 40.8991C245.306 40.8991 243.741 41.7626 242.697 43.487C241.654 45.2113 241.132 47.2643 241.132 49.6409V59.3817H235.479V38.0713H235.477Z" fill="#EDDACC"/>
<path d="M256.289 58.2078C255.217 57.1357 254.679 55.5417 254.679 53.4235V40.1583H250.897L251.593 38.0713H254.768L256.333 32.0687H260.291V38.0713H266.204L265.552 40.1583H260.291V53.9009C260.291 56.3948 261.261 57.6417 263.204 57.6417C264.219 57.6417 265.25 57.3678 266.293 56.8148V58.9904C264.96 59.5409 263.204 59.8174 261.031 59.8174C258.858 59.8174 257.364 59.28 256.291 58.2078H256.289Z" fill="#EDDACC"/>
<path d="M286.688 52.4661H290.992C290.47 54.8139 289.158 56.627 287.056 57.9026C284.953 59.1783 282.337 59.8174 279.206 59.8174C276.683 59.8174 274.487 59.3765 272.617 58.4922C270.746 57.6078 269.303 56.3322 268.289 54.6652C267.274 52.9983 266.768 51.0496 266.768 48.8165C266.768 46.5835 267.274 44.5826 268.289 42.9026C269.303 41.2226 270.746 39.9235 272.617 39.0104C274.487 38.0974 276.683 37.6409 279.206 37.6409C283.062 37.6409 286.025 38.5983 288.099 40.5104C290.17 42.4252 291.222 45.18 291.253 48.7748H272.421V49.0357C272.421 51.7904 273.037 53.927 274.27 55.4504C275.502 56.9713 277.336 57.733 279.772 57.733C283.685 57.733 285.991 55.98 286.688 52.4713V52.4661ZM274.75 41.5278C273.605 42.7304 272.872 44.4496 272.554 46.6826H285.861C285.571 44.4209 284.883 42.6965 283.795 41.507C282.707 40.3174 281.236 39.7226 279.381 39.7226C277.526 39.7226 275.893 40.3252 274.75 41.5278Z" fill="#EDDACC"/>
<path d="M117.85 75.8739C117.35 75.493 117.076 74.953 117.034 74.2487H118.226C118.242 74.7913 118.403 75.1956 118.709 75.4591C119.014 75.7226 119.442 75.853 119.995 75.853C120.548 75.853 120.997 75.6887 121.294 75.3626C121.591 75.0365 121.74 74.5513 121.74 73.9069V67.5339H123.044V73.6565C123.044 74.5591 122.784 75.2504 122.259 75.7278C121.737 76.2052 120.978 76.4426 119.982 76.4426C119.061 76.4426 118.351 76.2522 117.848 75.8713L117.85 75.8739Z" fill="#EDDACC"/>
<path d="M126.91 75.9052C126.198 75.5452 125.656 75.0261 125.28 74.3426C124.904 73.6618 124.717 72.8426 124.717 71.8904C124.717 70.9383 124.904 70.1478 125.28 69.4748C125.656 68.8018 126.201 68.2878 126.91 67.9383C127.623 67.5861 128.47 67.4113 129.457 67.4113C130.443 67.4113 131.29 67.5861 131.997 67.9383C132.704 68.2904 133.247 68.8018 133.623 69.4748C133.998 70.1478 134.186 70.9539 134.186 71.8904C134.186 72.827 133.998 73.6618 133.623 74.3426C133.247 75.0235 132.704 75.5452 131.997 75.9052C131.29 76.2652 130.443 76.4452 129.457 76.4452C128.47 76.4452 127.62 76.2652 126.91 75.9052ZM131.979 74.8148C132.574 74.1287 132.871 73.1557 132.871 71.8904C132.871 70.6252 132.577 69.6965 131.987 69.0235C131.397 68.3504 130.555 68.0139 129.459 68.0139C128.364 68.0139 127.518 68.3478 126.924 69.0183C126.329 69.6887 126.034 70.6461 126.034 71.8904C126.034 73.1348 126.331 74.1287 126.924 74.8148C127.518 75.5009 128.361 75.8426 129.459 75.8426C130.557 75.8426 131.387 75.5009 131.982 74.8148H131.979Z" fill="#EDDACC"/>
<path d="M136.37 67.5365H137.674V76.32H136.37V67.5365Z" fill="#EDDACC"/>
<path d="M146.358 74.0348H141.303L140.16 76.3174H139.281L143.849 67.4087H144.527L148.831 76.3174H147.425L146.358 74.0348ZM146.069 73.4322L143.911 68.8148L141.603 73.4322H146.069Z" fill="#EDDACC"/>
<path d="M150.423 75.7043C149.695 75.2113 149.293 74.5096 149.217 73.5965H150.347C150.404 74.3661 150.684 74.9322 151.182 75.2974C151.68 75.66 152.413 75.8426 153.383 75.8426C154.244 75.8426 154.904 75.6913 155.361 75.3913C155.817 75.0913 156.044 74.6583 156.044 74.1C156.044 73.7661 155.956 73.4843 155.781 73.26C155.606 73.033 155.306 72.8322 154.883 72.6574C154.461 72.4826 153.869 72.3183 153.107 72.167C151.894 71.9322 150.981 71.6296 150.365 71.2565C149.75 70.8835 149.444 70.3591 149.444 69.6809C149.444 68.9269 149.797 68.3609 150.498 67.98C151.2 67.5991 152.126 67.4087 153.271 67.4087C154.417 67.4087 155.34 67.6148 155.987 68.0296C156.634 68.4443 157.01 69.0183 157.109 69.7539H155.992C155.867 69.1435 155.572 68.7 155.108 68.4235C154.643 68.147 154.002 68.0087 153.183 68.0087C152.363 68.0087 151.784 68.1391 151.37 68.3974C150.955 68.6557 150.749 69.0156 150.749 69.4774C150.749 69.7539 150.827 69.9887 150.986 70.1791C151.145 70.3722 151.424 70.547 151.821 70.7061C152.217 70.8652 152.786 71.0191 153.522 71.1704C154.424 71.3557 155.15 71.5565 155.697 71.773C156.245 71.9896 156.657 72.2739 156.934 72.6209C157.21 72.9678 157.349 73.4087 157.349 73.9435C157.349 74.7287 156.997 75.3417 156.29 75.7826C155.583 76.2209 154.623 76.44 153.41 76.44C152.197 76.44 151.15 76.1922 150.423 75.6991V75.7043Z" fill="#EDDACC"/>
<path d="M162.441 67.5365H169.881V68.1391H163.745V71.3139H169.166V71.9035H163.745V75.7174H169.881V76.32H162.441V67.5365Z" fill="#EDDACC"/>
<path d="M175.604 75.7043C174.877 75.2113 174.475 74.5096 174.399 73.5965H175.529C175.586 74.3661 175.865 74.9322 176.364 75.2974C176.862 75.66 177.595 75.8426 178.565 75.8426C179.426 75.8426 180.086 75.6913 180.543 75.3913C180.999 75.0913 181.226 74.6583 181.226 74.1C181.226 73.7661 181.137 73.4843 180.963 73.26C180.788 73.033 180.488 72.8322 180.065 72.6574C179.643 72.4826 179.05 72.3183 178.289 72.167C177.076 71.9322 176.163 71.6296 175.547 71.2565C174.931 70.8835 174.626 70.3591 174.626 69.6809C174.626 68.9269 174.978 68.3609 175.68 67.98C176.382 67.5991 177.308 67.4087 178.453 67.4087C179.598 67.4087 180.522 67.6148 181.169 68.0296C181.816 68.4443 182.191 69.0183 182.29 69.7539H181.174C181.049 69.1435 180.754 68.7 180.29 68.4235C179.825 68.147 179.184 68.0087 178.364 68.0087C177.545 68.0087 176.966 68.1391 176.551 68.3974C176.137 68.6557 175.93 69.0156 175.93 69.4774C175.93 69.7539 176.009 69.9887 176.168 70.1791C176.327 70.3722 176.606 70.547 177.003 70.7061C177.399 70.8652 177.968 71.0191 178.704 71.1704C179.606 71.3557 180.331 71.5565 180.879 71.773C181.427 71.9896 181.839 72.2739 182.116 72.6209C182.392 72.9678 182.53 73.4087 182.53 73.9435C182.53 74.7287 182.178 75.3417 181.471 75.7826C180.764 76.2209 179.804 76.44 178.591 76.44C177.378 76.44 176.332 76.1922 175.604 75.6991V75.7043Z" fill="#EDDACC"/>
<path d="M184.237 67.5365H191.677V68.1391H185.541V71.3139H190.962V71.9035H185.541V75.7174H191.677V76.32H184.237V67.5365Z" fill="#EDDACC"/>
<path d="M202.779 67.5365V76.32H201.475V68.9426L198.063 76.32H197.447L193.784 68.8409V76.32H193.007V67.5365H194.499L198 74.7626L201.35 67.5365H202.779Z" fill="#EDDACC"/>
<path d="M205.213 67.5365H206.517V76.32H205.213V67.5365Z" fill="#EDDACC"/>
<path d="M209.053 75.8739C208.552 75.493 208.278 74.953 208.237 74.2487H209.429C209.444 74.7913 209.606 75.1956 209.911 75.4591C210.217 75.7226 210.644 75.853 211.197 75.853C211.75 75.853 212.199 75.6887 212.497 75.3626C212.794 75.0365 212.943 74.5513 212.943 73.9069V67.5339H214.247V73.6565C214.247 74.5591 213.986 75.2504 213.462 75.7278C212.94 76.2052 212.181 76.4426 211.184 76.4426C210.264 76.4426 209.554 76.2522 209.05 75.8713L209.053 75.8739Z" fill="#EDDACC"/>
<path d="M218.113 75.9052C217.401 75.5452 216.858 75.0261 216.483 74.3426C216.107 73.6618 215.919 72.8426 215.919 71.8904C215.919 70.9383 216.107 70.1478 216.483 69.4748C216.858 68.8018 217.404 68.2878 218.113 67.9383C218.825 67.5861 219.673 67.4113 220.659 67.4113C221.645 67.4113 222.493 67.5861 223.2 67.9383C223.907 68.2904 224.45 68.8018 224.825 69.4748C225.201 70.1478 225.389 70.9539 225.389 71.8904C225.389 72.827 225.201 73.6618 224.825 74.3426C224.45 75.0235 223.907 75.5452 223.2 75.9052C222.493 76.2652 221.645 76.4452 220.659 76.4452C219.673 76.4452 218.823 76.2652 218.113 75.9052ZM223.182 74.8148C223.777 74.1287 224.074 73.1557 224.074 71.8904C224.074 70.6252 223.779 69.6965 223.19 69.0235C222.6 68.3504 221.757 68.0139 220.662 68.0139C219.566 68.0139 218.721 68.3478 218.126 69.0183C217.531 69.6887 217.237 70.6461 217.237 71.8904C217.237 73.1348 217.534 74.1287 218.126 74.8148C218.721 75.5009 219.564 75.8426 220.662 75.8426C221.76 75.8426 222.59 75.5009 223.184 74.8148H223.182Z" fill="#EDDACC"/>
<path d="M227.572 67.5365H228.876V76.32H227.572V67.5365Z" fill="#EDDACC"/>
<path d="M237.561 74.0348H232.505L231.363 76.3174H230.484L235.051 67.4087H235.73L240.034 76.3174H238.628L237.561 74.0348ZM237.271 73.4322L235.114 68.8148L232.805 73.4322H237.271Z" fill="#EDDACC"/>
<path d="M241.625 75.7043C240.897 75.2113 240.496 74.5096 240.42 73.5965H241.55C241.607 74.3661 241.886 74.9322 242.384 75.2974C242.883 75.66 243.616 75.8426 244.586 75.8426C245.447 75.8426 246.107 75.6913 246.564 75.3913C247.02 75.0913 247.247 74.6583 247.247 74.1C247.247 73.7661 247.158 73.4843 246.984 73.26C246.809 73.033 246.509 72.8322 246.086 72.6574C245.664 72.4826 245.071 72.3183 244.31 72.167C243.097 71.9322 242.184 71.6296 241.568 71.2565C240.952 70.8835 240.647 70.3591 240.647 69.6809C240.647 68.9269 240.999 68.3609 241.701 67.98C242.403 67.5991 243.329 67.4087 244.474 67.4087C245.619 67.4087 246.543 67.6148 247.19 68.0296C247.837 68.4443 248.212 69.0183 248.311 69.7539H247.195C247.07 69.1435 246.775 68.7 246.31 68.4235C245.846 68.147 245.204 68.0087 244.385 68.0087C243.566 68.0087 242.987 68.1391 242.572 68.3974C242.157 68.6557 241.951 69.0156 241.951 69.4774C241.951 69.7539 242.03 69.9887 242.189 70.1791C242.348 70.3722 242.627 70.547 243.024 70.7061C243.42 70.8652 243.989 71.0191 244.724 71.1704C245.627 71.3557 246.352 71.5565 246.9 71.773C247.448 71.9896 247.86 72.2739 248.137 72.6209C248.413 72.9678 248.551 73.4087 248.551 73.9435C248.551 74.7287 248.199 75.3417 247.492 75.7826C246.785 76.2209 245.825 76.44 244.612 76.44C243.399 76.44 242.353 76.1922 241.625 75.6991V75.7043Z" fill="#EDDACC"/>
<path d="M75.0286 33.3365C74.653 33.3365 74.2799 33.3522 73.9121 33.3835C73.9434 33.013 73.9617 32.64 73.9617 32.2617C73.9617 25.2443 68.2721 19.5548 61.2547 19.5548C54.2373 19.5548 48.5478 25.2443 48.5478 32.2617C48.5478 32.7496 48.5739 33.2296 48.6287 33.7017C48.1852 33.6548 47.7339 33.6313 47.2773 33.6313C40.3147 33.6313 34.6617 39.2296 34.573 46.1713C34.573 46.4922 34.5834 46.8078 34.5965 47.1235C34.5965 47.1339 34.5965 47.1417 34.5965 47.1522C35.0165 53.7887 40.5339 59.0426 47.2773 59.0426C47.7156 59.0426 48.1487 59.0191 48.5765 58.9774C48.5582 59.2591 48.5504 59.5409 48.5504 59.8252C48.5504 66.8426 54.24 72.5322 61.2573 72.5322C68.2747 72.5322 73.9643 66.8426 73.9643 59.8252C73.9643 59.447 73.9487 59.0739 73.9147 58.7035C74.2826 58.7348 74.6556 58.7504 75.0313 58.7504C82.0486 58.7504 87.7382 53.0609 87.7382 46.0435C87.7382 39.0261 82.0486 33.3365 75.0313 33.3365H75.0286ZM71.9947 53.0348C71.2773 53.267 70.513 53.3922 69.72 53.3922C69.3104 53.3922 68.906 53.3583 68.5147 53.2956C68.58 53.6922 68.6165 54.1017 68.6165 54.5165C68.6165 55.3122 68.4913 56.0791 68.2565 56.7965C67.2965 59.7678 64.5078 61.9148 61.2182 61.9148C57.9286 61.9148 55.2495 59.8487 54.2373 56.9713C53.966 56.2043 53.82 55.3774 53.82 54.5191C53.82 54.2217 53.8382 53.9296 53.8721 53.6452C53.4547 53.7183 53.0243 53.7574 52.586 53.7574C51.7878 53.7574 51.0156 53.6296 50.2956 53.3948C47.3321 52.4322 45.1878 49.6461 45.1878 46.3591C45.1878 43.0722 47.4887 40.0852 50.6217 39.2243C51.2478 39.0522 51.9052 38.9609 52.586 38.9609C53.0608 38.9609 53.5252 39.0052 53.9765 39.0913C53.8747 38.6009 53.82 38.0922 53.82 37.573C53.82 36.8922 53.9113 36.2322 54.0834 35.6087C54.9443 32.4783 57.8113 30.1774 61.2182 30.1774C64.6252 30.1774 67.2965 32.3243 68.2565 35.2956C68.4886 36.013 68.6165 36.78 68.6165 37.5756C68.6165 37.9565 68.5878 38.3322 68.533 38.6974C68.9191 38.6348 69.3182 38.6009 69.7226 38.6009C70.5365 38.6009 71.3165 38.7313 72.0495 38.9739C74.9947 39.9496 77.1208 42.7252 77.1208 45.9965C77.1208 49.2678 74.9713 52.0774 71.9973 53.0374L71.9947 53.0348Z" fill="#EDDACC"/>
</svg>
